<svg data-v-fde0c5aa="" xmlns="http://www.w3.org/2000/svg" viewBox="0 0 300 300" class="iconLeft"><!----><defs data-v-fde0c5aa=""><!----></defs><rect data-v-fde0c5aa="" fill="#01252C" x="0" y="0" width="300px" height="300px" class="logo-background-square"></rect><defs data-v-fde0c5aa=""><!----></defs><g data-v-fde0c5aa="" id="1c57002f-fff9-4974-9cf8-aeb661d88877" fill="#FFFFFF" transform="matrix(3.4953162094297365,0,0,3.4953162094297365,109.42177775610133,121.02382792381488)"><path d="M7.07 3.82L4.27 11.30L1.46 3.82L-0.17 3.82L3.63 13.15L4.90 13.15L8.71 3.82ZM10.27 5.26C10.78 5.26 11.19 4.86 11.19 4.36C11.19 3.86 10.78 3.46 10.27 3.46C9.76 3.46 9.35 3.86 9.35 4.36C9.35 4.86 9.76 5.26 10.27 5.26ZM9.58 13.15L10.97 13.15L10.97 6.53L9.58 6.53ZM17.82 3.24L17.82 7.32C17.31 6.72 16.58 6.36 15.63 6.36C13.91 6.36 12.54 7.69 12.54 9.84C12.54 12.00 13.91 13.31 15.63 13.31C16.63 13.31 17.40 12.91 17.91 12.25L18.08 13.15L19.24 13.15L19.24 3.24ZM15.97 12.12C14.77 12.12 13.99 11.14 13.99 9.84C13.99 8.55 14.77 7.55 15.97 7.55C17.21 7.55 18.01 8.55 18.01 9.84C18.01 11.14 17.21 12.12 15.97 12.12ZM24.59 6.36C23.64 6.36 22.91 6.72 22.40 7.32L22.40 3.24L20.99 3.24L20.99 13.15L22.14 13.15L22.31 12.25C22.82 12.91 23.60 13.31 24.59 13.31C26.31 13.31 27.68 12.00 27.68 9.84C27.68 7.69 26.31 6.36 24.59 6.36ZM24.25 12.12C23.01 12.12 22.21 11.14 22.21 9.84C22.21 8.55 23.01 7.55 24.25 7.55C25.45 7.55 26.24 8.55 26.24 9.84C26.24 11.14 25.45 12.12 24.25 12.12ZM32.27 13.34C34.36 13.34 35.80 11.81 35.80 9.84C35.80 7.89 34.36 6.36 32.27 6.36C30.16 6.36 28.71 7.89 28.71 9.84C28.71 11.81 30.16 13.34 32.27 13.34ZM32.27 12.13C31.05 12.13 30.19 11.14 30.19 9.84C30.19 8.56 31.05 7.57 32.27 7.57C33.48 7.57 34.34 8.56 34.34 9.84C34.34 11.14 33.48 12.13 32.27 12.13ZM43.08 13.15L40.53 9.70L42.80 6.53L41.20 6.53L39.73 8.74L38.24 6.53L36.65 6.53L38.94 9.71L36.39 13.15L38.02 13.15L39.73 10.68L41.43 13.15Z"></path></g><defs data-v-fde0c5aa=""><!----></defs><g data-v-fde0c5aa="" id="72385041-f8a0-4bff-9c94-476d917f89f2" stroke="none" fill="#88DF95" transform="matrix(0.656594198367262,0,0,0.656594198367262,38.36704929690921,120.45378330511063)"><path d="M58.478 26.77H21.38c-5.182 0-9.423 4.24-9.423 9.423v25.922c0 5.183 4.24 9.423 9.423 9.423h37.099c5.182 0 9.423-4.24 9.423-9.423V36.193c-.001-5.182-4.241-9.423-9.424-9.423zm-33.71 4.9c-3.613 1.936-6.221 4.771-7.854 6.968-.619.833-1.939.251-1.736-.766 1.244-6.215 5.653-7.783 9.059-8.024 1.04-.074 1.45 1.33.531 1.822zm46.658-14.378H57.717a20.6 20.6 0 00-6.759-3.508l5.172-5.171a2.306 2.306 0 10-3.262-3.262l-7.191 7.191a2.32 2.32 0 00-.303.374c-.125-.002-.249-.006-.374-.006s-.249.003-.373.005a2.32 2.32 0 00-.303-.374L37.133 5.35a2.306 2.306 0 10-3.262 3.262l5.172 5.171a20.59 20.59 0 00-6.759 3.508h-13.71c-8.848 0-16.087 7.239-16.087 16.087v31.55c0 8.848 7.239 16.087 16.087 16.087h.213v1.596a2.721 2.721 0 002.713 2.713h1.651a2.721 2.721 0 002.713-2.713v-1.596h38.272v.924a2.721 2.721 0 002.713 2.713H68.5a2.721 2.721 0 002.713-2.713v-.924h.213c8.848 0 16.087-7.239 16.087-16.087v-31.55c0-8.847-7.239-16.086-16.087-16.086zm-51.15 57.666c-6.373 0-11.586-5.214-11.586-11.586V35.163c0-6.373 5.214-11.586 11.586-11.586h39.306c6.373 0 11.587 5.214 11.587 11.586v28.209c0 6.373-5.214 11.586-11.587 11.586H20.276zm58.743-15.554a2.562 2.562 0 110-5.124 2.562 2.562 0 010 5.124zm0-7.687a2.562 2.562 0 110-5.124 2.562 2.562 0 010 5.124zm0-7.688a2.562 2.562 0 110-5.124 2.562 2.562 0 010 5.124z"></path></g><!----></svg>