<svg data-v-fde0c5aa="" xmlns="http://www.w3.org/2000/svg" viewBox="0 0 300 300" class="font"><!----><defs data-v-fde0c5aa=""><!----></defs><rect data-v-fde0c5aa="" fill="#01252C" x="0" y="0" width="300px" height="300px" class="logo-background-square"></rect><defs data-v-fde0c5aa=""><!----></defs><g data-v-fde0c5aa="" id="521bb50b-7470-40c5-9082-51b7da4deda9" fill="#88DF95" transform="matrix(5.086705202312139,0,0,5.086705202312139,40.86473996928662,107.83121285410974)"><path d="M7.07 3.82L4.27 11.30L1.46 3.82L-0.17 3.82L3.63 13.15L4.90 13.15L8.71 3.82ZM10.27 5.26C10.78 5.26 11.19 4.86 11.19 4.36C11.19 3.86 10.78 3.46 10.27 3.46C9.76 3.46 9.35 3.86 9.35 4.36C9.35 4.86 9.76 5.26 10.27 5.26ZM9.58 13.15L10.97 13.15L10.97 6.53L9.58 6.53ZM17.82 3.24L17.82 7.32C17.31 6.72 16.58 6.36 15.63 6.36C13.91 6.36 12.54 7.69 12.54 9.84C12.54 12.00 13.91 13.31 15.63 13.31C16.63 13.31 17.40 12.91 17.91 12.25L18.08 13.15L19.24 13.15L19.24 3.24ZM15.97 12.12C14.77 12.12 13.99 11.14 13.99 9.84C13.99 8.55 14.77 7.55 15.97 7.55C17.21 7.55 18.01 8.55 18.01 9.84C18.01 11.14 17.21 12.12 15.97 12.12ZM24.59 6.36C23.64 6.36 22.91 6.72 22.40 7.32L22.40 3.24L20.99 3.24L20.99 13.15L22.14 13.15L22.31 12.25C22.82 12.91 23.60 13.31 24.59 13.31C26.31 13.31 27.68 12.00 27.68 9.84C27.68 7.69 26.31 6.36 24.59 6.36ZM24.25 12.12C23.01 12.12 22.21 11.14 22.21 9.84C22.21 8.55 23.01 7.55 24.25 7.55C25.45 7.55 26.24 8.55 26.24 9.84C26.24 11.14 25.45 12.12 24.25 12.12ZM32.27 13.34C34.36 13.34 35.80 11.81 35.80 9.84C35.80 7.89 34.36 6.36 32.27 6.36C30.16 6.36 28.71 7.89 28.71 9.84C28.71 11.81 30.16 13.34 32.27 13.34ZM32.27 12.13C31.05 12.13 30.19 11.14 30.19 9.84C30.19 8.56 31.05 7.57 32.27 7.57C33.48 7.57 34.34 8.56 34.34 9.84C34.34 11.14 33.48 12.13 32.27 12.13ZM43.08 13.15L40.53 9.70L42.80 6.53L41.20 6.53L39.73 8.74L38.24 6.53L36.65 6.53L38.94 9.71L36.39 13.15L38.02 13.15L39.73 10.68L41.43 13.15Z"></path></g><!----><!----></svg>